<?xml version="1.0" encoding="UTF-8"?><svg id="uuid-d50b6ae6-bd58-4d47-83e3-f58ddaa31bab" xmlns="http://www.w3.org/2000/svg" viewBox="0 0 46.59 8.19"><path d="m7.09,2.88c-.67,1.82-1.32,3.55-1.96,5.29h-.09c-.66-1.73-1.32-3.46-2.02-5.28-.65,1.76-1.26,3.44-1.87,5.12H0C.98,5.38,1.94,2.77,2.94.1c.72,1.82,1.43,3.59,2.16,5.42.71-1.82,1.39-3.58,2.11-5.43,1.01,2.68,1.95,5.29,2.93,7.92h-1.15c-.62-1.68-1.25-3.38-1.9-5.12h0Z"/><path d="m32.25,7.96h-1.05V.01c1.95,1.89,3.84,3.73,5.75,5.58-.02,0,0,0,0,0,0,0,.02-.02.03-.03,0-.03.02-.05.02-.08V.26h1c.09.33.13,6.74.04,7.92-1.93-1.87-3.82-3.7-5.73-5.56-.12.34-.04.69-.05,1.03,0,.36,0,.71,0,1.07v3.24h-.01Z"/><path d="m45.57,5.59V.28h1.02v7.89c-1.92-1.86-3.81-3.69-5.74-5.56-.06.44-.02.87-.03,1.3v4.04h-1.07V.01c1.94,1.87,3.88,3.69,5.82,5.58h0Z"/><path d="m26.62.01c1.25,2.69,2.46,5.3,3.69,7.95h-1.21c-.29-.65-.59-1.31-.88-1.98h-3.17c-.29.64-.59,1.29-.9,1.97h-1.23c1.23-2.64,2.45-5.26,3.7-7.95h0Zm1.17,5c-.4-.94-.77-1.81-1.15-2.69-.03.02-.07.03-.08.05-.34.81-.68,1.61-1.01,2.42-.02.06,0,.13,0,.22,0,0,2.24,0,2.24,0Z"/><path d="m22.25,6.27v1.17c-1.26,1.03-3.83,1.06-5.3-.41-1.46-1.46-1.61-4.05-.11-5.69,1.37-1.51,3.89-1.71,5.48-.5v1.12c-.21-.13-.35-.22-.5-.31-.84-.53-1.77-.63-2.71-.41-1.23.28-1.99,1.28-2.09,2.64-.11,1.4.6,2.78,2.11,3.15.7.17,1.39.1,2.05-.18.36-.15.7-.36,1.09-.57h-.02Z"/><path d="m14.63,3.14v1.04c-1.04-.61-1.97-.57-2.54.08-.5.57-.49,1.94.02,2.47.6.63,1.56.67,2.51.04v1.05c-.95.62-2.53.44-3.33-.44-.88-.95-.9-2.57-.16-3.55.71-.94,2.36-1.33,3.5-.69Z"/></svg>