<?xml version="1.0" encoding="UTF-8"?><svg id="uuid-2a6bf879-d539-424d-85d2-88177f06773b" xmlns="http://www.w3.org/2000/svg" viewBox="0 0 526.03 134.02"><defs><style>.uuid-249d1f58-4599-4198-8c8c-5870bc6aa981{fill:#231f20;}</style></defs><g><path class="uuid-249d1f58-4599-4198-8c8c-5870bc6aa981" d="m393.07,48.77c.04-.2-.05-.4-.23-.49l-.32-.17c-.2-.11-.43-.04-.58.12l-1.71,1.55c-5.26,4.77-12.1,7.41-19.19,7.41h-34.8V13.94c0-5.15,2.99-9.83,7.67-11.98.16-.07.27-.24.27-.41v-.39c0-.25-.2-.46-.46-.46h-19.25c-.25,0-.46.2-.46.46v.4c0,.17.17.33.25.41l3.26,3.54v50.56l-6.26,3.8c-.15.1-.25.24-.25.41v.48c0,.25.2.46.46.46h68.19l3.42-12.42v-.03Z"/><path class="uuid-249d1f58-4599-4198-8c8c-5870bc6aa981" d="m124.88,1.21c0-.28-.23-.51-.52-.51h-13.21c-.25,0-.46.2-.46.46v.4c0,.17.11.3.25.41l4.33,3.53-.02,7.21v25.43c0,9.37-6.1,16.42-16.12,16.42s-15.77-6.62-15.77-16.08V13.92c0-5.14,3-9.8,7.66-11.95h0c.16-.07.26-.24.26-.41v-.39c0-.25-.2-.46-.46-.46h-20.05c-.54,0-.71.38-.71.85,0,.17.12.3.25.41l4.33,3.53v19.38h0v20.48c2.96,10.15,11.59,16.25,22.39,16.25,13.33,0,23.09-8.26,23.09-22.01V10.66c0-3.39,1.61-6.59,4.35-8.65.25-.19.4-.48.4-.79h0Z"/><path class="uuid-249d1f58-4599-4198-8c8c-5870bc6aa981" d="m209.61,61.19h40.22l4.02-13.07c.09-.31-.04-.64-.32-.79s-.62-.09-.83.15c-7.98,9.03-9.76,9.88-15.86,9.88h-11.77v-23.19h10.9l4.34,5.58c.06.19.24.31.43.31.25,0,.46-.2.46-.46v-15.34c0-.25-.2-.46-.46-.46h-.02c-.19,0-.36.12-.42.29-2.72,2.7-6.4,4.22-10.23,4.22h-5V4.51h6.2c7.01,0,13.77,2.59,18.98,7.28l2.14,1.93c.14.13.34.15.51.07l.24-.12c.2-.1.3-.33.23-.55l-3.98-12.44h-37.16c-.25,0-.46.2-.46.46v.39c0,.18.08.28.26.41l4.32,3.36v51l-7.07,3.46c-.26.13-.42.39-.42.68,0,.42.34.75.75.75h0Z"/><path class="uuid-249d1f58-4599-4198-8c8c-5870bc6aa981" d="m481.76,61.19h40.22l4.02-13.07c.09-.31-.04-.64-.32-.79s-.62-.09-.83.15c-7.98,9.03-9.76,9.88-15.86,9.88h-11.77v-23.19h10.9l4.34,5.58c.06.19.24.31.43.31.25,0,.46-.2.46-.46v-15.34c0-.25-.2-.46-.46-.46h-.02c-.19,0-.36.12-.42.29-2.72,2.7-6.4,4.22-10.23,4.22h-5V4.51h6.2c7.01,0,13.77,2.59,18.98,7.28l2.14,1.93c.14.13.34.15.51.07l.24-.12c.2-.1.3-.33.23-.55l-3.98-12.44h-37.16c-.25,0-.46.2-.46.46v.39c0,.18.08.28.26.41l4.32,3.36v51l-7.07,3.46c-.26.13-.42.39-.42.68,0,.42.34.75.75.75h0Z"/><path class="uuid-249d1f58-4599-4198-8c8c-5870bc6aa981" d="m208.9,48.77c.04-.2-.05-.4-.23-.49l-.32-.17c-.2-.11-.43-.04-.58.12l-1.71,1.55c-5.26,4.77-12.1,7.41-19.19,7.41h-5.1V13.94c0-5.15,2.99-9.83,7.67-11.98.16-.07.27-.24.27-.41v-.39c0-.25-.2-.46-.46-.46h-19.25c-.25,0-.46.2-.46.46v.4c0,.17.17.33.25.41l3.26,3.54v50.56l-6.26,3.8c-.15.1-.25.24-.25.41v.48c0,.25.2.46.46.46h38.49l3.42-12.42v-.03Z"/><path class="uuid-249d1f58-4599-4198-8c8c-5870bc6aa981" d="m166.39,48.77c.04-.2-.05-.4-.23-.49l-.32-.17c-.2-.11-.43-.04-.58.12l-1.71,1.55c-5.26,4.77-12.1,7.41-19.19,7.41h-5.1V13.94c0-5.15,2.99-9.83,7.67-11.98.16-.07.27-.24.27-.41v-.39c0-.25-.2-.46-.46-.46h-19.25c-.25,0-.46.2-.46.46v.4c0,.17.17.33.25.41l3.26,3.54v50.56l-6.26,3.8c-.15.1-.25.24-.25.41v.48c0,.25.2.46.46.46h38.49l3.42-12.42v-.03Z"/><path class="uuid-249d1f58-4599-4198-8c8c-5870bc6aa981" d="m68.34,59.77l-6.68-4.8.02-49.36,5.73-3.67c.13-.08.21-.23.21-.38v-.42c0-.25-.2-.46-.46-.46h-10.74c-1.15,4.47-4.52,9.58-7.83,14.51l-11.96,17.05L14.36.68H2.38c-.38,0-.68.31-.68.69,0,.22.11.37.28.56l5.7,6.27v46.43L.4,59.77c-.24.17-.4.39-.4.67h0c0,.42.33.75.75.75h18.08c.41,0,.75-.34.75-.75,0-.28-.16-.49-.41-.67l-6.68-4.8V12l22.76,30.7h0l18.07-26.94v38.87l-6.05,5.14c-.21.21-.4.39-.4.67h0c0,.42.33.75.75.75h20.39c.41,0,.75-.34.75-.75,0-.28-.17-.5-.41-.67h0Z"/><path class="uuid-249d1f58-4599-4198-8c8c-5870bc6aa981" d="m371.25,0c-13.17-.13-23.95,10.45-24.08,23.62-.13,13.17,10.45,23.95,23.62,24.08s23.95-10.45,24.08-23.62S384.42.13,371.25,0Zm-.41,42.71c-8.58-.08-15.46-8.59-15.36-19.01.1-10.41,7.14-18.79,15.72-18.71,8.58.08,15.46,8.59,15.36,19.01-.1,10.41-7.14,18.79-15.72,18.71Z"/><path class="uuid-249d1f58-4599-4198-8c8c-5870bc6aa981" d="m481.36,1.58v-.4c0-.25-.2-.46-.46-.46h-17.47c-.25,0-.46.2-.46.46v.4c0,.17.09.32.24.4l5.77,3.09-13.24,43.72L441.8.28h-4.79l-16.11,48.86-10.8-44.07,6.87-3.1c.16-.07.27-.24.27-.42v-.38c0-.25-.2-.46-.46-.46h-21.47c-.25,0-.46.2-.46.46v.41c0,.16.09.31.23.39l5.96,3.44,14.55,56.18h5.14l16.29-46.95,13.5,46.95h5.23l18.73-56.09,6.64-3.53c.15-.08.24-.23.24-.4h0Z"/><path class="uuid-249d1f58-4599-4198-8c8c-5870bc6aa981" d="m319.48.69h-20.01c-.25,0-.46.2-.46.46v.42c0,.16.08.31.22.39l7.19,4.31v42.37L272.51.69h-15.06c-.25,0-.46.2-.46.46v.36c0,.15.07.28.19.37l8.09,5.88v46.81l-10.21,5.28c-.15.08-.25.23-.25.41v.49c0,.25.2.46.46.46h23.48c.25,0,.46-.2.46-.46v-.49c0-.17-.1-.33-.25-.41l-8.81-4.93V11.59l35.39,50.04h5.75V15.96c0-5.86,3.22-11.24,8.39-14.01.15-.08.24-.23.24-.4v-.4c0-.25-.2-.46-.46-.46h.02Z"/></g><g><path class="uuid-249d1f58-4599-4198-8c8c-5870bc6aa981" d="m182.1,133.76h13.38c11.14,0,20.13-7.84,20.13-18.56,0-9.73-6.54-17.72-19.66-17.72h-13.59c-.23,0-.42.19-.42.42,0,.16.09.3.23.37l4.11,2.18v30.54l-4.35,1.93c-.15.07-.25.22-.25.39v.03c0,.23.19.42.42.42h0Zm9.84-34.35h.68c11.19,0,17.29,5.8,17.29,15.74s-6.41,16.37-17.03,16.37c-.21,0-.52,0-.94-.05v-32.05h0Z"/><path class="uuid-249d1f58-4599-4198-8c8c-5870bc6aa981" d="m318.8,97.47h-12c-.15,0-.27.12-.27.27v.25c0,.1.05.19.13.23l4.31,2.59v25.41l-20.34-28.76h-9.03c-.15,0-.27.12-.27.27v.21c0,.09.04.17.11.22l4.85,3.53v28.08l-6.13,3.17c-.09.05-.15.14-.15.24v.29c0,.15.12.27.27.27h14.08c.15,0,.27-.12.27-.27v-.29c0-.1-.06-.2-.15-.24l-5.28-2.96v-25.98l21.23,30.01h3.45v-27.39c0-3.51,1.93-6.74,5.03-8.4.09-.05.15-.14.15-.24v-.24c0-.15-.12-.27-.27-.27h0Z"/><path class="uuid-249d1f58-4599-4198-8c8c-5870bc6aa981" d="m352.24,104.94l-2.39-7.47h-26.99l-2.39,7.47c-.04.13.02.27.14.33l.15.07c.1.05.22.03.31-.04l1.29-1.16c3.13-2.81,7.18-4.37,11.39-4.37v30.9l-4.93,2.29c-.09.04-.14.13-.14.22v.3c0,.15.12.27.27.27h14.84c.15,0,.27-.12.27-.27v-.3c0-.1-.06-.19-.15-.23l-4.92-1.99v-31.2c4.2,0,8.26,1.56,11.39,4.37l1.29,1.16c.08.08.2.09.31.04l.15-.07c.12-.06.18-.2.14-.33h-.03Z"/><path class="uuid-249d1f58-4599-4198-8c8c-5870bc6aa981" d="m251.24,98.23l-3.74,2.38-13.38,33.41h-4.29l-11.71-33.72-3.52-2.06c-.08-.05-.14-.14-.14-.24v-.25c0-.15.12-.27.27-.27h12.89c.15,0,.27.12.27.27v.24c0,.1-.06.2-.15.24l-3.93,2.01,9.67,28.65,10.61-28.49-3.38-2.17c-.08-.05-.13-.14-.13-.23v-.26c0-.15.12-.27.27-.27h10.22c.15,0,.27.12.27.27v.26c0,.09-.05.18-.13.23h.03Z"/><path class="uuid-249d1f58-4599-4198-8c8c-5870bc6aa981" d="m179.74,132.91l-4.5-2.42-11.06-33.02h-4.52l-13.08,32.6-5.38,2.84c-.14.07-.23.22-.23.38v.04c0,.24.19.43.43.43h12.37c.24,0,.43-.19.43-.43,0-.18-.11-.34-.28-.4-3.65-1.42-4.24-1.94-4.24-2.7,0-.42.21-1.19.83-2.8l3.06-7.84h12.61l3.79,11.42-4.11,1.91c-.15.07-.25.22-.25.39v.02c0,.24.19.43.43.43h13.46c.24,0,.43-.19.43-.43v-.04c0-.16-.09-.3-.23-.38h.04Zm-24.54-17.42l5.24-13.39,4.41,13.39h-9.66,0Z"/><path class="uuid-249d1f58-4599-4198-8c8c-5870bc6aa981" d="m384.83,132.91l-4.5-2.42-11.06-33.02h-4.52l-13.08,32.6-5.38,2.84c-.14.07-.23.22-.23.38v.04c0,.24.19.43.43.43h12.37c.24,0,.43-.19.43-.43,0-.18-.11-.34-.28-.4-3.65-1.42-4.24-1.94-4.24-2.7,0-.42.21-1.19.83-2.8l3.06-7.84h12.61l3.79,11.42-4.11,1.91c-.15.07-.25.22-.25.39v.02c0,.24.19.43.43.43h13.46c.24,0,.43-.19.43-.43v-.04c0-.16-.09-.3-.23-.38h.04Zm-24.54-17.42l5.24-13.39,4.41,13.39h-9.66,0Z"/><path class="uuid-249d1f58-4599-4198-8c8c-5870bc6aa981" d="m251.82,133.76h24.12l2.41-7.84c.06-.18-.02-.38-.19-.48-.17-.09-.37-.05-.5.09-4.78,5.42-5.85,5.93-9.51,5.93h-7.06v-13.91h6.54l2.6,3.35c.04.11.14.19.26.19.15,0,.27-.12.27-.27v-9.2c0-.15-.12-.27-.27-.27h0c-.11,0-.21.07-.25.17-1.63,1.62-3.84,2.53-6.14,2.53h-3v-14.27h3.72c4.2,0,8.26,1.56,11.38,4.37l1.28,1.16c.08.08.21.09.31.04l.15-.07c.12-.06.18-.2.14-.33l-2.39-7.46h-22.29c-.15,0-.27.12-.27.27v.23c0,.11.05.17.15.25l2.59,2.02v30.59l-4.24,2.07c-.15.08-.25.23-.25.4,0,.25.2.45.45.45h0Z"/></g></svg>