<?xml version="1.0" encoding="UTF-8"?><svg id="uuid-ac62c5c7-211e-400b-a6fb-0a83083d06e0" xmlns="http://www.w3.org/2000/svg" viewBox="0 0 99.7 23.67"><defs><style>.uuid-9dde60fe-f5ca-4502-a4f4-d9feee865c9c{fill:#fc0;}</style></defs><path d="m44.66,23.66c-.23-.84-.43-1.69-.7-2.51-1.52-4.82-3.05-9.63-4.57-14.45-.68-2.16-1.36-4.32-2.04-6.49,0-.04,0-.1.02-.18h5.92c1.32,4.78,2.65,9.55,3.97,14.32h.1s.05-.02.06-.04c1.21-4.75,2.42-9.49,3.63-14.27h5.92c1.2,4.81,2.41,9.61,3.64,14.54,1.4-4.9,2.7-9.73,4.05-14.55h5.98c-.55,1.75-1.1,3.46-1.64,5.18-1.7,5.39-3.39,10.78-5.09,16.18-.17.55-.35,1.09-.51,1.64-.06.2-.05.43-.08.64h-5.33c0-.11,0-.22,0-.33-.58-2.27-1.17-4.54-1.75-6.81-.71-2.75-1.41-5.5-2.13-8.33-.11.28-.2.47-.25.67-.18.66-.34,1.32-.52,1.98-.97,3.61-1.94,7.22-2.89,10.84-.17.65-.29,1.32-.43,1.98h-5.35Z"/><path d="m20.13,23.49c0-.3.03-.61.03-.91V.05c.2-.02.38-.05.56-.05h8.58c1.11,0,2.21.1,3.28.38,1.5.39,2.84,1.08,3.67,2.47,1.44,2.41.94,6.39-2.23,7.92-.15.07-.29.15-.49.25.37.14.71.27,1.05.41,2.24.96,3.48,2.62,3.6,5.06.06,1.26-.02,2.49-.63,3.67-.68,1.31-1.69,2.24-3.02,2.81-.64.28-1.31.58-2.05.56-.05,0-.1.09-.14.14h-12.17l-.03-.17h0Zm5.7-14.11c.97,0,1.94.02,2.9.02.59,0,1.13-.22,1.63-.51.38-.23.65-.57.81-1.01.57-1.59-.62-2.77-1.92-2.89-1.17-.11-2.36-.02-3.57-.02v4.28s.1.09.14.14h.01Zm-.15,9.41c.71,0,1.34.02,1.97,0,.77-.03,1.54-.06,2.31-.13.65-.05,1.2-.35,1.71-.75.95-.73,1.01-2.76-.26-3.5-.44-.26-.95-.43-1.45-.54-1.2-.26-2.43-.1-3.64-.13-.21,0-.42.02-.65.03v5.01h.01Z"/><path d="m66.33,23.66c.05-.32.05-.65.16-.95,1.25-3.44,2.51-6.87,3.78-10.3,1.18-3.2,2.37-6.4,3.55-9.61.34-.92.67-1.84,1.02-2.78h5.39c.52,1.4,1.06,2.83,1.59,4.26,1.8,4.86,3.61,9.73,5.41,14.59.49,1.33.98,2.66,1.46,4,.09.25.1.52.14.79h-5.83c-.01-.19,0-.39-.05-.56-.39-1.19-.8-2.38-1.2-3.55-.7-.17-7.28-.23-8.38-.07-.46,1.39-.91,2.79-1.37,4.19h-5.67,0Zm13.72-9.18c-.03-.16-.04-.33-.09-.48-.79-2.39-1.58-4.78-2.43-7.35-.89,2.76-1.74,5.36-2.6,8.02h5.19c-.02-.06-.05-.12-.07-.18h0Z"/><path d="m0,0h18.14v4.96h-6.29v17.8c0,.3-.01.61-.02.91h-5.5c-.01-.06-.03-.11-.04-.17,0-.11.02-.22.02-.33V5.38c0-.13-.02-.26-.03-.39H.17c-.06,0-.11-.02-.17-.03V0Z"/><path class="uuid-9dde60fe-f5ca-4502-a4f4-d9feee865c9c" d="m94.7,23.66c-.66-1.74-1.32-3.48-1.97-5.22-.94-2.53-1.88-5.06-2.81-7.58-.86-2.33-1.7-4.66-2.56-6.99-.42-1.14-.85-2.27-1.27-3.41-.04-.12-.05-.25-.08-.42h4.94c1.09,2.96,2.17,5.92,3.26,8.88,1.01,2.73,2.01,5.46,3.03,8.2.78,2.1,1.56,4.2,2.34,6.29.02.04.08.06.12.09.03.14-.02.17-.17.17h-4.83Z"/></svg>