<?xml version="1.0" encoding="UTF-8"?><svg id="uuid-e47e862e-21d2-4516-8f6b-bc2aa12f0e50" xmlns="http://www.w3.org/2000/svg" viewBox="0 0 39.02 7.93"><path d="m6.64.19h2.18c.27.71.55,1.42.82,2.13.26.69.53,1.39.79,2.08.05,0,.1.01.14.02.47-1.41.94-2.81,1.42-4.23h2.2c.46,1.4.93,2.81,1.39,4.22.04,0,.09.02.14.03.54-1.41,1.08-2.81,1.63-4.24h2.17c-.95,2.51-1.89,4.97-2.82,7.45h-2.24c-.43-1.29-.86-2.61-1.3-3.93-.04,0-.09,0-.13,0-.44,1.31-.88,2.61-1.32,3.94h-2.22c-.93-2.45-1.87-4.91-2.83-7.45h-.02Z"/><path d="m30.9,2.32c-.72,0-1.4,0-2.07,0-.16,0-.33-.11-.49-.19-.96-.48-2.04-.21-2.64.67-.58.84-.44,2.05.33,2.72.78.69,1.97.71,2.74.04.18-.15.3-.37.45-.56-.02-.04-.04-.08-.06-.12h-1.33v-1.63h3.39c.42,2.05-.87,4.08-2.91,4.57-1.99.49-4.08-.69-4.68-2.73-.6-2.06.54-4.22,2.53-4.89,2.08-.71,4.21.6,4.74,2.13h0Z"/><path d="m36.23.2c.93,2.49,1.85,4.94,2.79,7.46h-2.19c-.2-.62-.41-1.26-.63-1.93h-2.16c-.22.65-.43,1.29-.66,1.95h-2.18c.95-2.53,1.88-5,2.81-7.49h2.22Zm-.56,3.81c-.18-.54-.34-1.04-.5-1.54h-.13c-.16.49-.32.99-.49,1.54h1.12Z"/><path d="m5.8.21v1.68h-1.84v5.76H1.84V1.92H0V.21h5.8Z"/><path d="m22.49,7.65h-2.15V.21h2.15v7.44Z"/></svg>