<?xml version="1.0" encoding="UTF-8"?><svg id="uuid-9f498d36-c462-4209-b32f-b02b02ac1de8" xmlns="http://www.w3.org/2000/svg" viewBox="0 0 107 140"><defs><style>.uuid-ed355208-2601-4284-a597-61369b894880{fill:#333;fill-rule:evenodd;}</style></defs><g id="uuid-2bb6acc4-607d-4ef3-9d80-dc6cea6c56ce"><g id="uuid-8a942138-01be-4648-8abb-fe9b6ba45c2c"><path id="uuid-d053dbb8-2e5d-46e7-99a8-69a30763a0b0" class="uuid-ed355208-2601-4284-a597-61369b894880" d="m106.88,37.59c-2.8,9.96-5.65,19.91-8.55,29.84-.43,1.47-.42,2.68.55,3.95.81,1.06,1.39,2.3,2.17,3.62-2.25,1.12-4.34,2.18-6.44,3.22-9.58,4.75-19.16,9.52-28.77,14.2-.79.39-1.97.56-2.78.28-20.68-7.15-41.34-14.37-62-21.58-.28-.1-.54-.27-.94-.48,4.02-12.68,7.99-25.18,11.93-37.7.35-1.11.91-1.25,1.93-1.02,4.12.93,8.29,1.7,12.37,2.75,1.27.33,2.36,1.38,3.72,2.22,2.9-9.11,5.86-18.38,8.87-27.84,4.26.63,8.43,1.24,12.6,1.86.18.03.36.13.55.12,2.46-.06,4.31.84,5.29,3.18.14.33.43.59.88,1.2,1.55-5.3,3.02-10.32,4.52-15.42,3.43.4,6.7.77,9.96,1.17,5.44.68,10.87,1.42,16.31,2.04,1.14.13,1.72.57,2.23,1.57,5.12,10.14,10.31,20.24,15.41,30.39.34.68.41,1.67.2,2.41h0Zm-80.07,0c-.8,2.36-1.58,4.64-2.38,7,1.06.33,1.92.6,2.89.9.4-1.25.61-2.36,1.11-3.33,1.05-2.05.16-3.34-1.62-4.57h0Zm27.82-22.92c-2.56,8.6-5.06,16.98-7.59,25.47,1.42.32,2.54.57,3.75.84.21-.61.38-1.06.52-1.53,1.71-5.91,3.19-11.9,5.2-17.7,1.01-2.91.36-4.92-1.88-7.08h0Zm49.56,20.68c-2.5-5.1-5.1-10.15-7.68-15.21-2.2-4.33-4.41-8.67-6.85-13.46-8.22,28.12-16.26,55.65-24.41,83.56,11.09-5.49,21.8-10.79,32.64-16.16-.65-1.1-1.33-1.99-1.74-3-.32-.79-.59-1.79-.38-2.56,2.86-10.21,5.83-20.38,8.69-30.59.22-.79.1-1.84-.27-2.58h0ZM8.07,120.62c-4.93-1.39-7.78-4.5-7.94-9.51-.14-4.16,1.91-7.3,5.77-8.93,4.5-1.9,8.52-.85,12.04,3,.06-1.21.1-2.14.16-3.19.55-.1,1.08-.19,1.65-.29.06-.15.16-.31.19-.48.98-5.56,4.29-7.69,9.93-6.5.59.13,1.4-.24,1.97-.59,3.42-2.09,8.51-1.26,10.62,1.88-.83.94-1.69,1.9-2.53,2.84-3.79-1.61-5.86-.65-6.02,2.89h8.08v18.28h-5.26v-13.85h-2.88v13.8h-5.48v-13.81h-2.91v13.8h-5.52c0-4.21,0-8.39,0-12.56,0-.88-.02-1.66-1.19-1.26.35,2.2.7,4.34,1.09,6.78H6.1c.68,2.37,2.59,3.21,5.05,2.69,2.39-.5,4.83-.75,7.39-1.13-.59,3.14-2.86,4.91-7.58,6.25,1.08.54,2.11,1.05,2.65,1.33,1.1-.43,1.87-.96,2.66-1,2.12-.11,4.25.09,6.36-.05,1.46-.1,1.9.5,2.22,1.78.68,2.75,1.55,5.44,2.42,8.46.26-.55.46-.87.56-1.21.77-2.53,1.55-5.07,2.27-7.61.27-.95.68-1.39,1.78-1.42,3.94-.08,3.94-.13,5.11,3.68.66,2.16,1.33,4.32,2.15,7.02.98-3.45,1.85-6.31,2.59-9.21.3-1.18.86-1.59,2.07-1.5,1.42.1,2.86.02,4.39.02-.04.55-.07.95-.11,1.42,1.27-.57,2.47-1.1,4.09-1.83-3.48-.16-5.88-1.57-7.7-3.99-1.86-2.46-2.18-5.25-1.54-8.11,1.14-5.08,6.41-8.1,11.89-6.99,4.7.96,8.09,6.21,7.18,11.38h-13.41c.73,2.42,2.9,3.25,5.39,2.64,2.27-.56,4.65-.69,7.43-1.07-1.53,3.61-3.92,5.25-6.93,6.02,1.35.6,2.7,1.2,4.05,1.81.72-1.46,1.84-1.71,5.71-1.08v18.02c-3.67.78-5.12.45-5.48-1.38-2.58,1.85-5.38,2.23-8.31,1.21-2.91-1.01-4.63-3.22-5.87-6.51-.79,2.29-1.34,4.1-2.06,5.84-.2.47-.9.74-1.38,1.09-.04.03-.12,0-.18,0q-4.33.13-5.65-3.95c-.63-1.93-1.25-3.86-1.88-5.79-.03-.1-.14-.19-.34-.42-.93,2.91-1.88,5.71-2.69,8.54-.34,1.19-.86,1.68-2.18,1.67-4.04-.03-4.03.03-5.26-3.83-.87-2.73-1.79-5.44-3.01-8.09v11.55c-3.35.91-5.12.5-5.43-1.39-2.69,1.99-5.61,2.34-8.66,1.18-2.39-.91-4.03-2.67-5.02-4.97-2.4-5.56.36-10.72,7.22-13.41h0Zm20.16-18.93c.12-.72.22-1.33.31-1.93.03-.23,0-.46,0-.7-2.19-.02-2.86.61-2.88,2.63h2.56Zm-14.29,7.12c-.93-1.89-2.35-2.53-4.19-2.49-1.74.04-3.16.58-3.97,2.49h8.15Zm42.54.05c-.94-2.04-2.47-2.58-4.32-2.54-1.72.04-3.07.67-3.85,2.54h8.18Zm-1.83,25.7c2.47,0,4.31-1.87,4.29-4.37-.02-2.58-1.95-4.54-4.42-4.5-2.46.05-4.55,2.14-4.51,4.52.04,2.44,2.07,4.34,4.64,4.35h0Zm-44.27,0s.02,0,.03,0c.02,0,.03,0,.05,0,2.42-.01,4.33-2,4.28-4.44-.05-2.49-2.11-4.5-4.56-4.44,0,0-.01,0-.02,0-.02,0-.04,0-.06,0-2.45.06-4.44,2.14-4.4,4.59.04,2.43,2.08,4.3,4.68,4.28h0Zm59.8-12.16c1.33-.62,2.68-1.26,4.37-2.06.09,1.54.16,2.62.21,3.47,1.92-.96,3.82-2.22,5.91-2.86,2.28-.71,4.54-.05,6.68,1.83v-7.45h5.57v8.9c2.72-3.77,6.08-4.4,9.83-3.25,2.3.71,3.4,2.54,3.74,5.21-2-.41-4.11,1.25-5.74-1.16-.2-.3-1.47.1-2.25.17.19.68.16,1.73.61,1.98,1.11.64,2.43.89,3.65,1.34,3.28,1.19,4.36,2.71,4.14,5.73-.2,2.65-2.24,4.85-5.08,5.45-3.32.7-6.32.24-8.72-2.73-.08.94-.14,1.65-.2,2.32-3.89.76-5.14.48-5.55-1.34-3.85,2.36-7.66,2.45-11.13-.58-3.53-3.08-3.76-6.99-2.46-11.17-1.96-.23-3.09.56-3.19,2.53-.15,2.83-.09,5.68-.12,8.51,0,.67,0,1.34,0,2.15h-5.39c0-6.03,0-12.05,0-18.06,3.18-.85,4.84-.48,5.16,1.07h0Zm22.88,11.33c.38.06.67.13.97.15,1.56.09,3.32-.55,4.32,1.47.16.33,1.48.23,2.22.09.29-.06.74-.92.62-1.15-.31-.57-.84-1.27-1.41-1.43-2.49-.7-4.97-1.36-6.71-3.75v4.62h0Zm-9.85.83c2.45,0,4.3-1.9,4.27-4.4-.03-2.58-1.94-4.51-4.45-4.48-2.46.02-4.46,2.07-4.44,4.54.03,2.46,2.02,4.33,4.62,4.34h0Z"/></g></g></svg>