<?xml version="1.0" encoding="UTF-8"?><svg id="uuid-a0f1c6fd-be40-4701-8b33-fa7e0e9ea2b9" xmlns="http://www.w3.org/2000/svg" viewBox="0 0 436 295.75"><defs><style>.uuid-52791cc4-373d-453a-8aa7-025b24054037{fill:#fff;}</style></defs><path d="m60.73,155.76c-.45,1.19-.86,2.39-1.37,3.55-2.26,5.11-5.8,8.19-12.69,6.69-1.1-.5-3.14-1.43-4.35-1.99-2.99-3.75-6.04-6.58-7.84-10.06-2.62-5.06-4.82-10.45-6.32-15.94-1.71-6.27-2.96-12.64-6.34-18.31.04-.1.08-.2.12-.31l-.02.39c-.65-1.79-1.3-3.58-1.96-5.37h-.23c-1.81-6.49-3.63-12.98-5.57-19.92,3.02-.3,4.93-.49,6.86-.68,1.39,4.74,2.32,9.16,3.97,13.3,3.02,7.56,6.46,14.95,9.72,22.41l.08.2-.19-.28c3.2,6.25,6.4,12.51,9.95,19.45,2.37-1.82,4.09-3.14,5.3-4.07,4.04-17.91,3.47-35.78,5.06-53.98,2.4-.31,4.8-.62,7.2-.93-.25.02-.5.03-.49.03-.03.01.17-.07.38-.16,3.96.48,6.9,2.63,8.35,6.18,1.43,3.5,2.06,7.32,3.28,10.91.62,1.82,1.78,3.45,3.66,5.05,5.4-16.3,10.2-32.38,12.5-49.92.98-.74,2.52-1.91,4.45-3.37-.58-1.17-1.2-2.42-1.65-3.32.55-2.43,1.05-4.65,1.55-6.87,2.68-4.55,4.43-9.31,2.91-14.36.92-2.75,1.69-5.04,2.65-7.89,1.09-1.59,2.54-3.7,4.16-6.06-.7-1.36-1.35-2.62-2.13-4.15.93-2.52,1.94-5.24,2.92-7.92,1.22-.16,2.2-.3,3.18-.43l-.1.11c.7-2.36,1.4-4.73,2.29-7.74,3.73.47,7.25.92,10.46,1.32,1.46,1.39,2.64,2.52,4.5,4.29-1.2,3.85-2.29,8.21-3.9,12.37-3,7.73-6.4,15.31-4.58,24.32-1.11-.26-1.94-.45-2.75-.64-3.07,4.44-3.18,8.13-.24,12.15-.68,1.03-1.35,2.15-2.13,3.2-.69.92-1.52,1.75-2.43,2.79,0,4.23.52,8.67-.1,12.95-1.76,12.27-3.42,24.61-6.25,36.65-1.43,6.08-3.11,12.41-5.42,18.05-3.07,7.51-1.16,16.12-6.82,22.68.24.37.48.74.71,1.11,17.2-1.25,34.4-2.51,52.05-3.8-2.09-3.69-3.95-6.73-5.57-9.9-1.08-2.11-1.79-4.42-2.74-6.6-1.28-2.95-2.69-5.84-3.92-8.8-.63-1.5-1.24-3.09-1.42-4.69-.71-6.29-.94-12.65-1.99-18.87-.49-2.91-2.47-5.56-3.97-8.77,1.51-.5,2.44-.81,3.51-1.16-.07-.66-.14-1.31-.2-1.96l.2-.19-.09.3c-3.16-1.04-2.86-3.59-2.69-6.11.26-3.77.52-7.54.76-11.31.18-2.98.39-5.92,2.98-8.05.25-.21-.09-1.15-.16-1.75l.11.1c1.55-4.3,2.68-8.83,4.79-12.84,1.75-3.32,4.2-6.6,7.13-8.89,6.67-5.22,13.52-10.81,23.08-7.24.87-.94,1.63-1.75,2.63-2.82,6.67,2.7,13.9,4.5,19.84,8.32,9.1,5.84,12.22,15.66,14.58,25.93,1.78,7.75.16,15.19-.72,22.51-.77,6.43-1.14,13.07-2.77,19.4-1.65,6.42-3.49,12.83-5.86,19-2.25,5.83-5.3,11.36-8.32,17.69-.87.6-2.39,1.64-3.91,2.69.13.48.26.96.4,1.43,16.61-1.18,33.21-2.37,50.82-3.62-.75-2.55-1.35-4.77-2.06-6.95-1.85-5.69-3.97-11.3-5.54-17.07-1.54-5.62-3.56-11.42-3.45-17.1.1-5.14-2.46-9.43-2.5-14.26-.03-3.61.44-7.22.1-10.71-.43-3.24-.78-6.5-1.32-9.72-.23-1.35-.8-2.65-1.3-3.94-.62-1.63-1.8-3.21-1.91-4.86-.28-4.5-.67-8.93-2.68-13.04-2.77-5.65-1.76-11.03,1.21-16.44,7.23-3.59,18.21-1.12,21.67,4.73,1.88,3.17,2.69,7.23,3.05,10.97.55,5.75,0,11.6.44,17.37.53,6.76,1.67,13.46,2.47,20.2.66,5.5,1.09,11.04,1.85,16.52.57,4.09,1.43,8.15,2.33,12.19.23,1.02,1.11,1.89,1.7,2.86,4.13-1.65,4.16-5.48,5.52-8.51,2.34-5.22,4.9-10.33,7.21-15.57,1.34-3.03,2.36-6.21,3.52-9.32.1.18.21.35.18.3.05.04-.11-.09-.27-.21,1.71-2.58,3.42-5.15,5.06-7.62,5.62-1.36,10.73-.59,15.92,1.57,5.58,2.31,6.55,7.08,7.6,11.98,1.56,7.32,3.02,14.67,4.52,22.01l-.12.12v-.22c1.41-1.42,3.12-2.66,4.13-4.32,1.07-1.77,1.48-3.95,2.18-5.95l-.1.35.15-.23c.96-4.55,1.57-9.21,2.95-13.63,1.83-5.85,3.79-11.76,6.56-17.2,2.32-4.56,2.36-9.48,3.8-14.14.92-2.96,1.74-5.95,2.6-8.93l-.12-.12c3.54-.83,2.05-4.24,2.88-6.31,1.41-3.55,1.54-7.61,2.14-11.1,1.44-.49,2.63-.9,3.83-1.32l.3-.2-.18.31c-.48-.84-.97-1.67-1.48-2.56.9-1.18,1.69-2.21,2.48-3.25l-.56-.2c.79-2.77,1.48-5.58,2.39-8.31,1.64-4.89,6.15-8.14,11.08-8.37,1.92-.09,3.83-.55,6.52-.96.28.88.84,2.63,1.4,4.38l.02.22.02-.35c2.93,3.76,3.31,8.38,2.39,12.51-1.86,8.29-4.66,16.37-7.14,24.52-.56,1.85-1.42,3.61-2.14,5.41l-.11-.2.16.13c-2.47,8.68-5.03,17.33-7.39,26.03-3.05,11.21-5.93,22.47-8.93,33.7-1.91,7.13-3.91,14.24-5.87,21.36v-.32l.12.23c-2.23,8.06-4.45,16.13-6.49,23.52-10.31,4.52-9.66,5.49-25.43-4.99-4.87-9.4-9.81-18.92-14.89-28.74-5.27,5.93-5.75,13.81-9.24,21.45,6.16-.41,11.7-.78,17.89-1.19,1.86,25.6,3.71,51.07,5.62,77.26-57.07,4.15-113.62,8.26-171.14,12.44v38.87c1.91.33,3.76.66,5.61.98.07.25.14.51.21.76-1.84.81-3.68,1.62-5.83,2.56,1.34,4.58,2.71,9.23,4.23,14.43-2.45.68-4.39,1.23-7.46,2.08-.34-2.79-.91-4.88-.77-6.92.23-3.45.2-6.66-3.26-9.45-6.86,1.29-14.08,2.65-21.19,3.99-3.2,4.04-1.51,10.28-6.79,13.34-1.21-.7-2.45-1.42-3.85-2.23.93-2.9,1.78-5.54,2.88-8.95-3.88,1.06-7.16,1.96-10.99,3.01-.86-1.13-1.79-2.37-2.98-3.94,1.5-1.69,2.77-3.11,3.47-3.9,5.41-.41,9.92-.75,13.73-1.04,7.05-14.63,13.6-28.21,20.47-42.44-7.92.42-15.42.81-23.39,1.23-1.81-25.85-3.58-51.22-5.35-76.59-.29.08-.58.15-.87.23-1.58-4.43-3.17-8.85-4.91-13.74-.91.05-2.1.1-3.2.16-.81,5.62-1.56,10.78-2.3,15.93l.1-.12-.05.06Zm108.1-30.95c2.36-4.5,5.08-8.84,6.97-13.53,1.77-4.4,2.64-9.15,3.91-13.75.31.09.63.18.94.28-.58-1.13-1.16-2.27-1.75-3.43,2.79-2.81,2.11-6.09,1.82-9.33-.13-1.4-.03-2.81-.04-4.22h.33l-.42.11c1.16-6.15,1.19-12.26-.78-18.28.04-.06.07-.12.11-.18v.28c.86-5.5-2.21-9.01-6.11-12.1.05-.06.1-.13.15-.19-.02.1-.03.2-.05.3-5.51-2.87-10.52-2.1-15.28,2.14.11,1.57.21,3.2.32,4.82-.07.08-.15.16-.22.24.04-.12.07-.23.11-.35,1.98,4.94,3.96,9.87,5.94,14.81-1.2,2.31-2.33,4.5-3.66,7.08-2.27-.68-4.48-1.35-7.11-2.14-2.02,5.82-3.97,11.39-3.98,17.43-.03,11.86-.44,23.72,2.67,35.37.84,3.16,2.07,5.49,5.72,6.59,4.04-3.37,8.07-7,10.55-12.04l-.1.09h-.04Zm-62.53,89.82c3.01-.26,5.32-.36,7.61-.66,9.2-1.23,15.68-8.67,15.42-17.86-.16-5.49-.64-10.97-.9-16.46-.61-12.59-9.36-21.71-25.67-17.1.1,2.08.18,4.23.34,6.38.04.63.3,1.24.56,2.27,2.06-.13,4-.29,5.95-.36,5.5-.22,8.54,2.22,9.07,7.66.57,5.8.98,11.62,1.23,17.44.21,5.01-2.2,7.72-7.21,8.46-2.24.33-4.5.47-6.99.73.2,3.28.37,6.06.58,9.51h0Zm76.74-58.47c-2.84.24-5.27.45-8.62.74.84,3.1.84,6.25,2.35,8.23,10.79,14.09,21.9,27.95,33.06,42.08,2.81-.21,5.57-.43,9.26-.71-.98-2.99-1.19-5.85-2.65-7.75-10.92-14.21-22.09-28.23-33.41-42.59h0Zm-26.92,54.94c10.28-.94,16.7-7.64,16.48-17.16-.16-6.96-1-13.91-1.64-20.85-.14-1.46-.57-2.95-1.13-4.32-2.92-7.11-10.4-11.16-17.15-9.2.14,2.58.27,5.22.41,7.75,7.78,2.4,8.61,3.59,8.92,11.76.15,3.98.58,7.95.8,11.93.4,7.12-.44,8.5-7.11,11.62.13,2.64.27,5.4.43,8.48h0Zm-4.43-8.02c-8.27-3.06-8.71-3.68-9.14-12.33-.16-3.16-.57-6.32-.58-9.47,0-2.95-.4-6.25.76-8.75,1.02-2.21,3.96-3.53,6.37-5.5-.14-2.35-.31-5.11-.48-7.84-9,.32-16.47,7.33-16.47,16.07,0,7.96.67,16.01,2.03,23.85,1.46,8.41,10.38,13.88,17.9,11.73-.13-2.59-.27-5.22-.4-7.75h.01Zm82.41,2.49c-1.24-17.7-2.44-34.85-3.67-52.35-3.52.2-6.58.38-9.99.58,1.21,17.76,2.39,34.95,3.59,52.64,3.36-.29,6.28-.54,10.06-.87h.01Zm-145.25-42.76c1.22,17.68,2.41,34.85,3.62,52.4,3.59-.23,6.47-.41,9.76-.62-1.21-17.79-2.38-34.98-3.58-52.54-3.43.27-6.22.48-9.8.76h0Zm19.67,65.46c-.39-.13-.79-.26-1.18-.4-7.07,13.29-16,25.64-20.11,41.28,6.76-.63,13.26-1.23,20.17-1.87,2.18-6.37,1.9-12.39-.27-18.05.48-7.22.93-14.09,1.39-20.95h0Zm96.78-73.47c.52,8.81,1.01,17.07,1.5,25.26,3.3,4.19,6.47,8.23,9.65,12.27l1.07-.53c-.88-12.51-1.77-25.03-2.68-37.9-3.4.32-6.16.59-9.54.91h0Zm-28.29,17.13c-.4.12-.81.25-1.21.37.94,12.3,1.88,24.6,2.86,37.4,3.61-.45,6.45-.8,9.55-1.19-.58-8.56-1.12-16.51-1.67-24.66-3.12-3.9-6.32-7.91-9.52-11.92h0Zm58.06-9.3c7.14-.46,13.69-.89,20.74-1.34-.28-3.47-.53-6.49-.81-10-7.18.56-13.7,1.08-20.51,1.61.2,3.42.37,6.21.58,9.74h0Zm2.26,32.9c.3,3.67.54,6.57.8,9.82,7.03-.55,13.56-1.07,20.56-1.62-.32-3.62-.58-6.63-.86-9.81-7.09.56-13.5,1.06-20.5,1.61h0Zm-1.42-21.43c.33,3.58.61,6.62.92,10.04,5.33-.34,10.19-.66,15.43-.99-.22-3.65-.41-6.69-.61-10.06-5.52.36-10.41.67-15.74,1.01h0Z"/><path d="m410.39,259.53c-6.76-7.38-8.15-15.6-3.7-22.83,4.67-7.58,15.33-9.78,22.27-4.59,6.25,4.67,6.63,14.8.71,21.37-.98,1.09-2.3,1.87-3.82,3.08,1.59,1.28,2.56,2.08,3.55,2.86,6.14,4.86,8.06,11.74,5.5,19.75-2.56,7.97-9.23,13.44-16.66,13.66-11.38.33-19.1-11.26-14.66-22.59,1.46-3.74,4.35-6.91,6.82-10.71h0Zm6.1,3.5c-6.51,4.48-8.85,13.57-5.28,20,1.64,2.95,4.14,4.74,7.67,4.68,3.48-.05,6.05-1.74,7.69-4.71,3.15-5.71,1.54-12.48-3.87-16.24-2.02-1.4-4.22-2.55-6.21-3.74h0Zm4.75-8.65c5.22-4.21,6.91-9.67,4.72-14.96-1.16-2.8-2.95-4.66-6.28-4.73-5.7-.12-9.17,5.03-7.4,11.14,1.34,4.64,5.25,6.5,8.96,8.55Z"/><path d="m277.66,288.76c-2.53-.77-4.51-1.37-5.97-1.82-1.61-4.39,0-7.25,1.4-10.31,1.15-2.51,1.58-5.35,1.81-8.2-8.62,7.31-14.07,18.21-26.25,20.42-2.78-5.13-2.2-10.94,1.38-14.89,8.36-9.2,16.79-18.34,25.36-27.34,1.63-1.71,4.18-2.5,6.06-4.01,1.31-1.06,2.5-2.5,3.23-4.01,3.43-7.12,6.6-14.36,10.06-21.46.56-1.15,2.14-1.81,3.54-2.92,1.53,1.28,2.74,2.28,4.47,3.73-13.18,21.59-23.87,43.84-25.09,70.81Zm-.54-35.62c-8.99,7.41-17.49,15.21-23.8,25.04-.72,1.13-.55,2.83-.78,4.27.41.13.82.27,1.22.4,9.3-8.67,18.51-17.41,23.36-29.71Z"/><path d="m141.55,263.51c-3.73,6.53-7.47,13.06-11.2,19.58.19.23.39.47.58.7-2.08.71-4.16,1.42-7.36,2.51,1.35-11.16,2.57-21.18,3.85-31.74,7.02,1.31,3.62,7.15,5.5,11.41,1.8-2.53,3.36-4.7,4.89-6.89,1.61-2.31,3.19-4.64,4.85-7.05h5.69c3.1,8.48-1.43,16.97-.13,25.41,3.43-2.83,15.28-27.74,15.24-32.09,2.6-2.09,3.84-6.83,9.72-4.64-.77,2.23-1.26,4.41-2.23,6.35-6.34,12.59-12.83,25.11-19.15,37.71-.79,1.57-.64,3.59-1.35,5.23-.89,2.07-2.22,3.96-3.25,5.75-5.57-1.14-6.74-3.11-6.18-7.89.94-7.94,1.52-15.92,2.25-23.89-.57-.16-1.13-.31-1.7-.47h-.02Z"/><path d="m186.95,288.01c1.83-5.74,3.27-10.23,4.7-14.72-.38-.24-.76-.48-1.14-.71-4.32,4.17-8.65,8.34-13.79,13.3-1.12.21-3.37.62-5.9,1.08-1.03-1.92-1.94-3.63-2.96-5.55,10.19-16.98,23.53-30.67,39.6-42.9,1.32,2.35,2.1,3.73,2.92,5.18-9.05,14.54-14.05,30.41-17.47,46.68-3.68,1.31-5.36-.27-5.96-2.36h0Zm6.96-29.75c-6.9,5.7-13.5,11.67-17.84,19.58.42.38.84.76,1.26,1.13,5.71-6.74,11.41-13.48,17.12-20.21.85-1.19,1.7-2.37,2.55-3.56-.35-.21-.69-.43-1.04-.64-.68,1.23-1.37,2.46-2.05,3.7Z"/><path d="m379.61,286.37c3.75.54,6.2.89,8.88,1.28v3.76h-25.88c-.22-.91-.5-2.06-.88-3.58,3.1-.56,5.79-1.05,9.13-1.65v-46.45c-3.79,2.06-7.36,3.99-11.61,6.3-.48-2.42-.86-4.4-1.26-6.43,7.04-3.31,13.74-6.46,21.28-10,.3,2.09.8,3.88.79,5.66-.09,13.48-.29,26.97-.44,40.45-.04,3.44,0,6.89,0,10.67h-.01Z"/><path d="m237.83,254.32c-2.13,2.12-4.47,4.07-6.35,6.39-3.44,4.24-6.77,8.59-9.81,13.12-1.45,2.15-2.58,4.73-3.05,7.27-.74,3.93-3.01,6.08-6.73,7.58-.95-.73-1.95-1.49-3.29-2.52,1.96-5.06,3.92-9.97,5.76-14.92,1.77-4.77,4.53-9.37,2.44-15.8,1-.82,2.26-1.84,3.44-2.81,1.76.4,3.03.69,4.44,1.01.65,1.34,1.28,2.62,1.96,4.01.55-.29,1.01-.44,1.35-.74,3.99-3.51,7.84-7.19,11.98-10.52,2.53-2.03,5.4-2.82,8.03,1.68-2.74,6.81-5.7,14.13-8.75,21.71-1.65-.33-2.85-.57-4.51-.9,1.39-4.87,2.66-9.36,3.94-13.85-.29-.24-.57-.48-.86-.72h0Z"/><path d="m12.1,84.91c-1.29-1.94-3.27-3.81-.23-6.59-.96-1.13-2.05-2.4-3.22-3.78,1.32-6.58-7.08-9.62-6.25-16.91.69-5.99-1.48-12.3-2.4-18.56,1.85-1.24,3.17-2.13,4.46-2.99,1.92,2.05,3.65,3.9,5.89,6.3-.13,4.26,3.62,9.44-1.16,14.5-.28,2.59,1.3,3.45,3.9,3.2l.1-.12c-1.12.65-2.23,1.31-3.77,2.21,2.47,1.89,3.61,2.76,4.73,3.61,1.25,4.9,2.49,9.76,3.7,14.52-1.48.69-2.48,1.15-3.71,1.73.73,1.71,1.35,3.17,2.07,4.84-.98.4-1.86.76-3.11,1.28-.43-1.25-.78-2.27-1.13-3.3l-.09-.21s.22.27.22.27Z"/><path d="m290.13,284.52c2.08.44,4.11.87,7.08,1.49,1.16-1.56,3.16-3.25,3.87-5.37,3.44-10.28,6.54-20.68,10.04-31.94.86-.94,2.52-2.75,4.69-5.11,1.12-.06,2.88-.16,4.42-.24,3.75,5.52,2.76,7.97-3.52,9.66-2.59,8.2-4.64,16.63-7.97,24.53-2.06,4.9-5.83,9.17-9.29,13.35-1.52,1.84-4.18,2.74-6.81,1.38-2.21-1.14-2.89-3.13-2.5-7.75h-.01Z"/><path d="m339.93,250.12c-1.98-.55-3.84-1.07-6.08-1.68-.37-2.08-.74-4.13-1.13-6.35,3.76-3.99,7.39-7.82,11.71-12.4.49-.19,1.96-.77,3.44-1.35l.66.56c-1.72,2.99-3.43,5.98-5.35,9.33,1.91,4.15-.12,7.82-3.24,11.89h-.01Z"/><path d="m13.09,60.07c.02-.1.04-.2.06-.3.01.06.03.12.04.18l-.1.12Z"/><polygon points="127.8 59.62 127.65 59.93 127.91 59.73 127.8 59.62"/><polygon points="60.64 155.88 60.98 155.83 60.73 155.76 60.64 155.88"/><path d="m315.03,42.53c-.08-.05-.17-.09-.25-.14.05,0,.09,0,.14.02l.12.12h-.01Z"/><polygon class="uuid-52791cc4-373d-453a-8aa7-025b24054037" points="338.93 46.78 338.77 46.65 338.88 46.84 338.93 46.78"/><polygon class="uuid-52791cc4-373d-453a-8aa7-025b24054037" points="34.59 129.46 34.78 129.74 34.7 129.54 34.59 129.46"/><polygon class="uuid-52791cc4-373d-453a-8aa7-025b24054037" points="292.77 106.57 292.77 106.79 292.89 106.67 292.77 106.57"/><polygon class="uuid-52791cc4-373d-453a-8aa7-025b24054037" points="299.13 96.43 298.98 96.65 299.07 96.3 299.13 96.43"/><polygon class="uuid-52791cc4-373d-453a-8aa7-025b24054037" points="345.77 4.4 345.74 4.75 345.72 4.53 345.77 4.4"/><path class="uuid-52791cc4-373d-453a-8aa7-025b24054037" d="m21.91,119.79l.02-.39c-.04.1-.08.2-.12.31l.1.08Z"/><polygon class="uuid-52791cc4-373d-453a-8aa7-025b24054037" points="126.91 86.84 127 86.54 126.8 86.74 126.91 86.84"/><path class="uuid-52791cc4-373d-453a-8aa7-025b24054037" d="m107.73,7.77l.1-.11-.1.11Z"/><polygon class="uuid-52791cc4-373d-453a-8aa7-025b24054037" points="180.58 80.95 181 80.85 180.68 80.83 180.58 80.95"/><polygon class="uuid-52791cc4-373d-453a-8aa7-025b24054037" points="323.88 23.8 324.06 23.49 323.77 23.69 323.88 23.8"/><path class="uuid-52791cc4-373d-453a-8aa7-025b24054037" d="m259.8,78.74c.16.12.32.25.27.21.03.05-.07-.13-.18-.3l-.1.09h.01Z"/><path class="uuid-52791cc4-373d-453a-8aa7-025b24054037" d="m179.9,62.77v-.28c-.04.06-.07.12-.11.18l.11.1Z"/><path class="uuid-52791cc4-373d-453a-8aa7-025b24054037" d="m61.99,89.82c-.2.09-.41.17-.38.16,0,0,.24-.02.49-.03,0,0-.11-.13-.11-.13Z"/><polygon class="uuid-52791cc4-373d-453a-8aa7-025b24054037" points="316.85 127.77 316.73 127.54 316.73 127.86 316.85 127.77"/><path class="uuid-52791cc4-373d-453a-8aa7-025b24054037" d="m173.89,50.77c.02-.1.03-.2.05-.3-.05.06-.1.13-.15.19l.1.1h0Z"/><path class="uuid-52791cc4-373d-453a-8aa7-025b24054037" d="m158.82,57.62c-.04.12-.07.23-.11.35l.22-.24s-.11-.11-.11-.11Z"/><polygon class="uuid-52791cc4-373d-453a-8aa7-025b24054037" points="12.1 84.91 11.87 84.63 11.97 84.84 12.1 84.91"/><path d="m168.93,124.72l-.1.09.1-.09Z"/></svg>