<?xml version="1.0" encoding="UTF-8"?><svg id="uuid-a00c7d83-958d-4b36-89b9-da423379cd8d" xmlns="http://www.w3.org/2000/svg" viewBox="0 0 1280 853"><defs><style>.uuid-33b88156-6d4c-4daf-91ba-c9ec4ee5de81{fill:#fff;}.uuid-f3b98a0a-acdc-4181-997b-eccd3d6bcc37{fill:#ff3232;}.uuid-fb44bd44-cae1-431e-9dfe-7c371cd920d1{fill:red;}</style></defs><path class="uuid-fb44bd44-cae1-431e-9dfe-7c371cd920d1" d="m555,0c56.67,0,113.33,0,170,0,.08,1.99.24,3.98.24,5.97.01,109.63.01,219.25.01,328.88,0,1.95,0,3.9,0,6.27h6.93c180.1,0,360.2,0,540.3,0,2.16,0,4.33.08,6.49.12.34.25.69.5,1.03.75v169c-.34.25-.69.5-1.03.75-2,.04-3.99.12-5.99.12-180.43,0-360.86,0-541.3,0h-6.43c0,2.81,0,4.79,0,6.77,0,109.46,0,218.92-.01,328.38,0,1.99-.16,3.98-.24,5.97h-170c-.08-1.99-.24-3.98-.24-5.97-.01-109.63-.01-219.25-.01-328.88,0-1.95,0-3.9,0-6.27h-6.43c-180.27,0-360.53,0-540.8,0-2.16,0-4.33-.08-6.49-.12-.34-.25-.69-.5-1.03-.75,0-56.33,0-112.67,0-169,.34-.25.69-.5,1.03-.75,2-.04,3.99-.12,5.99-.12,180.43,0,360.86,0,541.3,0h6.43c0-2.81,0-4.79,0-6.77,0-109.46,0-218.92.01-328.38,0-1.99.16-3.98.24-5.97Z"/><path class="uuid-33b88156-6d4c-4daf-91ba-c9ec4ee5de81" d="m555,0c-.08,1.99-.24,3.98-.24,5.97-.01,109.46-.01,218.92-.01,328.38,0,1.98,0,3.97,0,6.77h-6.43c-180.43,0-360.86,0-541.3,0-2,0-3.99.08-5.99.12-.34-.08-.69-.17-1.03-.25,0-113.67,0-227.33,0-341,185,0,370,0,555,0Zm-256.84,193.9l1.7-1.88c21.22,2.58,42.44,5.16,63.17,7.67v-58.11c-20.96,2.7-42.2,5.44-65.12,8.39,2.87-22.9,5.56-44.33,8.22-65.47h-58.86c4.08,21.18,7.08,42.61,7.86,65.41-22.21-2.85-43.51-5.59-64.13-8.23v57.94c20.7-2.47,42.09-5.03,65.18-7.79-2.93,23.08-5.63,44.37-8.26,65.14h58.3c-2.65-20.73-5.35-41.91-8.05-63.08Z"/><path class="uuid-33b88156-6d4c-4daf-91ba-c9ec4ee5de81" d="m1.03,511.75c2.16.04,4.33.12,6.49.12,180.27,0,360.53,0,540.8,0h6.43c0,2.37,0,4.32,0,6.27,0,109.63,0,219.25.01,328.88,0,1.99.16,3.98.24,5.97H0C0,739.33,0,625.67,0,512c.34-.08.69-.17,1.03-.25Zm254.98,148.15c-23.16.75-44.29-3.81-65.01-6.82v58.33c20.9-2.5,42.19-5.05,64.49-7.72-.56,5.41-.93,9.8-1.5,14.18-2.11,16.36-4.23,32.72-6.49,49.06-.36,2.59.23,2.68,2.67,2.63,14.68-.36,29.37-.42,44.06-.57,4.22-.04,8.43,0,11.94,0-2.68-21.54-5.29-42.52-8.12-65.25,22.99,2.75,44.33,5.3,65.01,7.77v-58.08c-20.92,2.68-42.26,5.42-65.13,8.35,2.86-22.77,5.54-44.13,8.23-65.59h-58.23c2.63,20.7,5.32,41.85,8.1,63.73Z"/><path class="uuid-33b88156-6d4c-4daf-91ba-c9ec4ee5de81" d="m1278.97,341.25c-2.16-.04-4.33-.12-6.49-.12-180.1,0-360.2,0-540.3,0h-6.93c0-2.37,0-4.32,0-6.27,0-109.63,0-219.25-.01-328.88,0-1.99-.16-3.98-.24-5.97,184.9,0,369.79,0,555,0v341c-.34.08-.69.17-1.03.25Zm-190.14-200.28c-11.34,1.84-23.07,3.97-34.86,5.57-8.8,1.19-17.69,1.68-26.54,2.46-3.08.27-3.65-1.61-3.37-4.13.69-6.35,1.32-12.71,2.08-19.06.81-6.81,1.68-13.62,2.64-20.42,1-7.01,2.14-14.01,3.2-20.89h-59.13c3.51,21.3,7.3,42.56,7.16,65.31-21.98-2.8-43.3-5.52-63.96-8.15v58.54c20.81-3.19,42.09-6.88,65.15-7.3-2.69,22.21-5.28,43.54-7.77,64.08h58.08c-2.61-20.97-5.26-42.27-8.1-65.11,22.85,2.75,44.42,5.34,65.44,7.86v-58.77Z"/><path class="uuid-33b88156-6d4c-4daf-91ba-c9ec4ee5de81" d="m725,853c.08-1.99.24-3.98.24-5.97.01-109.46.01-218.92.01-328.38,0-1.98,0-3.97,0-6.77h6.43c180.43,0,360.86,0,541.3,0,2,0,3.99-.08,5.99-.12.34.08.69.17,1.03.25v341h-555Zm256.13-193.07c-23.24.61-44.41-3.68-65.64-7.02.52,10.09,1.39,19.72,1.41,29.35.02,9.8-.81,19.61-1.29,29.91,21.17-3.47,42.44-7.13,65.55-7.2-2.68,22.09-5.27,43.44-7.86,64.77,19.47-2.45,38.84-2.55,58.38.09-2.72-21.51-5.43-42.94-8.36-66.09,22.99,2.72,44.7,5.29,65.57,7.76v-58.54c-1.38.16-3.3.3-5.18.62-6.6,1.09-13.16,2.48-19.79,3.33-11.88,1.51-23.8,2.69-35.69,4.06-3.37.39-4.58-1.03-4.18-4.29.73-6.02,1.31-12.07,2.07-18.09,1.19-9.4,2.43-18.79,3.73-28.17.68-4.95,1.52-9.87,2.2-14.24h-58.58c2.55,21.22,5.08,42.23,7.67,63.76Z"/><path class="uuid-f3b98a0a-acdc-4181-997b-eccd3d6bcc37" d="m0,341c.34.08.69.17,1.03.25-.34.25-.69.5-1.03.75,0-.33,0-.67,0-1Z"/><path class="uuid-f3b98a0a-acdc-4181-997b-eccd3d6bcc37" d="m1278.97,341.25c.34-.08.69-.17,1.03-.25v1c-.34-.25-.69-.5-1.03-.75Z"/><path class="uuid-f3b98a0a-acdc-4181-997b-eccd3d6bcc37" d="m1.03,511.75c-.34.08-.69.17-1.03.25,0-.33,0-.67,0-1,.34.25.69.5,1.03.75Z"/><path class="uuid-f3b98a0a-acdc-4181-997b-eccd3d6bcc37" d="m1280,512c-.34-.08-.69-.17-1.03-.25.34-.25.69-.5,1.03-.75v1Z"/><path class="uuid-fb44bd44-cae1-431e-9dfe-7c371cd920d1" d="m298.16,193.9c2.7,21.17,5.4,42.35,8.05,63.08h-58.3c2.63-20.78,5.33-42.06,8.26-65.14-23.09,2.76-44.48,5.32-65.18,7.79v-57.94c20.63,2.65,41.93,5.38,64.13,8.23-.78-22.8-3.78-44.23-7.86-65.41h58.86c-2.65,21.14-5.34,42.57-8.22,65.47,22.92-2.95,44.16-5.69,65.12-8.39v58.11c-20.73-2.52-41.95-5.1-63.17-7.67l-1.7,1.88Z"/><path class="uuid-fb44bd44-cae1-431e-9dfe-7c371cd920d1" d="m256.01,659.9c-2.78-21.88-5.47-43.03-8.1-63.73h58.23c-2.69,21.46-5.37,42.83-8.23,65.59,22.87-2.93,44.21-5.67,65.13-8.35v58.08c-20.68-2.47-42.02-5.02-65.01-7.77,2.83,22.73,5.44,43.72,8.12,65.25-3.5,0-7.72-.03-11.94,0-14.69.14-29.38.21-44.06.57-2.44.06-3.03-.04-2.67-2.63,2.26-16.34,4.38-32.7,6.49-49.06.56-4.37.93-8.77,1.5-14.18-22.29,2.67-43.59,5.22-64.49,7.72v-58.33c20.73,3.01,41.86,7.57,65.01,6.82Z"/><path class="uuid-fb44bd44-cae1-431e-9dfe-7c371cd920d1" d="m1088.83,140.97v58.77c-21.02-2.53-42.59-5.12-65.44-7.86,2.84,22.84,5.49,44.14,8.1,65.11h-58.08c2.49-20.54,5.07-41.87,7.77-64.08-23.05.42-44.34,4.11-65.15,7.3v-58.54c20.66,2.63,41.99,5.35,63.96,8.15.14-22.75-3.65-44-7.16-65.31h59.13c-1.06,6.88-2.2,13.87-3.2,20.89-.96,6.79-1.83,13.6-2.64,20.42-.76,6.34-1.39,12.7-2.08,19.06-.27,2.52.29,4.4,3.37,4.13,8.85-.77,17.75-1.27,26.54-2.46,11.8-1.59,23.52-3.73,34.86-5.57Z"/><path class="uuid-fb44bd44-cae1-431e-9dfe-7c371cd920d1" d="m981.13,659.93c-2.59-21.53-5.12-42.55-7.67-63.76h58.58c-.68,4.37-1.52,9.3-2.2,14.24-1.29,9.38-2.54,18.77-3.73,28.17-.76,6.02-1.33,12.06-2.07,18.09-.4,3.26.82,4.68,4.18,4.29,11.9-1.37,23.81-2.55,35.69-4.06,6.63-.84,13.19-2.23,19.79-3.33,1.89-.31,3.8-.46,5.18-.62v58.54c-20.87-2.47-42.58-5.04-65.57-7.76,2.93,23.16,5.64,44.58,8.36,66.09-19.54-2.63-38.91-2.54-58.38-.09,2.59-21.33,5.18-42.68,7.86-64.77-23.12.07-44.38,3.72-65.55,7.2.48-10.3,1.31-20.11,1.29-29.91-.02-9.63-.89-19.26-1.41-29.35,21.23,3.35,42.41,7.64,65.64,7.02Z"/></svg>